Coordinates
version=1
nRows=117
nColumns=6
inDegrees=yes

Units are S.I. units (second, meters, Newtons, ...)
If the header above contains a line with 'inDegrees', this indicates whether rotational values are in degrees (yes) or radians (no).

endheader
time	foot_tx	hip_flexion_r	knee_angle_r	ankle_angle_r	lumbar
     32.50000000	      0.24287065	     55.55806573	    -86.42989596	      5.19103883	    -36.66810657
     32.51000000	      0.24287352	     55.66591500	    -86.42448188	      5.18864387	    -36.78094053
     32.52000000	      0.24287789	     55.77640354	    -86.41707279	      5.18540610	    -36.90542244
     32.53000000	      0.24286903	     55.83310351	    -86.40469129	      5.18685250	    -37.10019359
     32.54000000	      0.24287093	     55.96256651	    -86.39634353	      5.18299863	    -37.23317862
     32.55000000	      0.24287386	     56.09580769	    -86.38545250	      5.17849350	    -37.37738743
     32.56000000	      0.24286244	     56.18204096	    -86.37077038	      5.17954955	    -37.58457345
     32.57000000	      0.24286329	     56.33464663	    -86.35905290	      5.17622807	    -37.73712259
     32.58000000	      0.24285900	     56.49254908	    -86.34633720	      5.17432130	    -37.89940323
     32.59000000	      0.24284776	     56.65646811	    -86.33225005	      5.17382292	    -38.07167307
     32.60000000	      0.24283207	     56.79272717	    -86.31546136	      5.17752229	    -38.28822971
     32.61000000	      0.24282401	     56.98034436	    -86.30012213	      5.17821111	    -38.46931761
     32.62000000	      0.24280534	     57.17790839	    -86.28349313	      5.17977410	    -38.66031966
     32.63000000	      0.24278783	     57.38657368	    -86.26552571	      5.18101150	    -38.86068593
     32.64000000	      0.24276889	     57.60804369	    -86.24626454	      5.18162715	    -39.07068713
     32.65000000	      0.24274936	     57.84366905	    -86.22570368	      5.18124922	    -39.29044787
     32.66000000	      0.24273013	     58.09427929	    -86.20383824	      5.17978701	    -39.52005639
     32.67000000	      0.24271182	     58.35999451	    -86.18062759	      5.17745242	    -39.75965258
     32.68000000	      0.24269347	     58.68521322	    -86.16094122	      5.17258106	    -39.96265018
     32.69000000	      0.24267625	     58.97307168	    -86.13524531	      5.17040364	    -40.23100292
     32.70000000	      0.24265755	     59.27784577	    -86.10956620	      5.16872280	    -40.50826902
     32.71000000	      0.24263143	     59.65698469	    -86.09074707	      5.16569928	    -40.73434992
     32.72000000	      0.24260748	     59.98691921	    -86.06663826	      5.16769358	    -41.03864830
     32.73000000	      0.24257462	     60.39521962	    -86.05041930	      5.16915981	    -41.28747122
     32.74000000	      0.24253718	     60.75411121	    -86.03159749	      5.17843119	    -41.61344177
     32.75000000	      0.24248843	     61.21365013	    -86.02454196	      5.18801734	    -41.85898294
     32.76000000	      0.24243941	     61.65204485	    -86.01715760	      5.20408650	    -42.15126579
     32.77000000	      0.24238778	     62.11239829	    -86.01384340	      5.22495243	    -42.44473736
     32.78000000	      0.24233603	     62.59433158	    -86.01388048	      5.25052870	    -42.73914098
     32.79000000	      0.24228445	     63.09807265	    -86.01680228	      5.28127098	    -43.03288785
     32.80000000	      0.24223707	     63.62104712	    -86.02164478	      5.31737299	    -43.32670886
     32.81000000	      0.24219489	     64.16355608	    -86.02865662	      5.35942231	    -43.61851411
     32.82000000	      0.24215771	     64.73097138	    -86.03813662	      5.40722787	    -43.90159869
     32.83000000	      0.24212520	     65.32165915	    -86.05288602	      5.46231051	    -44.17607420
     32.84000000	      0.24210101	     65.94210260	    -86.07183060	      5.52285180	    -44.43590582
     32.85000000	      0.24208974	     66.60009715	    -86.09534537	      5.58735320	    -44.67396631
     32.86000000	      0.24207973	     67.29987341	    -86.12703888	      5.65764637	    -44.88628309
     32.87000000	      0.24208220	     68.05083446	    -86.16585196	      5.73131692	    -45.06406613
     32.88000000	      0.24210453	     68.85778978	    -86.21212633	      5.80844388	    -45.20034773
     32.89000000	      0.24211433	     69.69578499	    -86.27293151	      5.89949742	    -45.31551767
     32.90000000	      0.24214230	     70.56587667	    -86.34067175	      5.99930117	    -45.40694357
     32.91000000	      0.24216697	     71.46914603	    -86.42156423	      6.11364976	    -45.46780348
     32.92000000	      0.24219021	     72.39224384	    -86.51161400	      6.24217954	    -45.50997674
     32.93000000	      0.24221538	     73.33081723	    -86.60825536	      6.38446249	    -45.53586679
     32.94000000	      0.24223141	     74.28504951	    -86.71121198	      6.54186446	    -45.54104124
     32.95000000	      0.24223549	     75.25833930	    -86.81809335	      6.71401269	    -45.51859907
     32.96000000	      0.24223047	     76.24144031	    -86.92352490	      6.90012012	    -45.47546530
     32.97000000	      0.24221410	     77.24166932	    -87.02587483	      7.09997327	    -45.39877298
     32.98000000	      0.24218651	     78.25198689	    -87.11802377	      7.31220974	    -45.29265614
     32.99000000	      0.24215187	     79.26876354	    -87.19427017	      7.53528207	    -45.15663482
     33.00000000	      0.24211241	     80.28778290	    -87.24881710	      7.76746362	    -44.99084689
     33.01000000	      0.24207662	     81.30260819	    -87.27642116	      8.00681266	    -44.79796663
     33.02000000	      0.24204373	     82.31576176	    -87.27438536	      8.25225404	    -44.57085474
     33.03000000	      0.24202902	     83.32261671	    -87.23906935	      8.50180310	    -44.31168457
     33.04000000	      0.24203211	     84.33172870	    -87.17382330	      8.75562871	    -44.00655753
     33.05000000	      0.24205757	     85.33912701	    -87.08097958	      9.01388382	    -43.65637607
     33.06000000	      0.24210416	     86.32984379	    -86.96731302	      9.27948366	    -43.27364354
     33.07000000	      0.24217711	     87.29038515	    -86.83577285	      9.55182780	    -42.87061333
     33.08000000	      0.24227724	     88.19871516	    -86.69210988	      9.83263577	    -42.46780912
     33.09000000	      0.24240247	     89.03234832	    -86.54117483	     10.12295645	    -42.08591416
     33.10000000	      0.24255373	     89.76680446	    -86.38539848	     10.42252957	    -41.74712162
     33.11000000	      0.24273570	     90.38004950	    -86.22590333	     10.72995543	    -41.47088660
     33.12000000	      0.24294376	     90.85478513	    -86.06303584	     11.04433243	    -41.26971828
     33.13000000	      0.24317628	     91.18066269	    -85.89512157	     11.36345712	    -41.14965152
     33.14000000	      0.24343071	     91.35822902	    -85.71950696	     11.68467751	    -41.10583101
     33.15000000	      0.24370030	     91.40221726	    -85.53254961	     12.00473624	    -41.11856818
     33.16000000	      0.24397864	     91.30651432	    -85.32936812	     12.32242754	    -41.19530121
     33.17000000	      0.24425723	     91.10937922	    -85.10428400	     12.63261270	    -41.29315534
     33.18000000	      0.24452636	     90.81626645	    -84.85153618	     12.93329271	    -41.40891876
     33.19000000	      0.24477830	     90.44213185	    -84.56491158	     13.22162927	    -41.52934915
     33.20000000	      0.24500546	     90.00276867	    -84.23821519	     13.49460179	    -41.64112929
     33.21000000	      0.24520442	     89.51310438	    -83.86588126	     13.74931096	    -41.73238019
     33.22000000	      0.24537153	     88.98438377	    -83.44366024	     13.98375536	    -41.79611592
     33.23000000	      0.24551150	     88.43246545	    -82.96885530	     14.19531899	    -41.81993100
     33.24000000	      0.24562831	     87.86544425	    -82.43977905	     14.38241038	    -41.80144100
     33.25000000	      0.24572359	     87.28804031	    -81.85692504	     14.54449924	    -41.74191705
     33.26000000	      0.24580492	     86.70651995	    -81.22213993	     14.68082780	    -41.64019018
     33.27000000	      0.24587968	     86.12444652	    -80.53847270	     14.79121562	    -41.49747488
     33.28000000	      0.24595170	     85.53851510	    -79.81065423	     14.87703093	    -41.32087043
     33.29000000	      0.24603178	     84.95009413	    -79.04094268	     14.93731585	    -41.11205571
     33.30000000	      0.24611796	     84.34943237	    -78.23476825	     14.97506650	    -40.88269785
     33.31000000	      0.24620963	     83.72853888	    -77.39600624	     14.99227560	    -40.64197092
     33.32000000	      0.24630392	     83.08096958	    -76.52776499	     14.99085358	    -40.39698294
     33.33000000	      0.24640234	     82.40412687	    -75.63370654	     14.97248022	    -40.14989834
     33.34000000	      0.24649722	     81.69138450	    -74.71611196	     14.93980530	    -39.90743244
     33.35000000	      0.24659274	     80.94223003	    -73.77776280	     14.89422873	    -39.66938293
     33.36000000	      0.24668629	     80.15540089	    -72.81833659	     14.83613650	    -39.43799479
     33.37000000	      0.24678225	     79.32505699	    -71.83854258	     14.76673107	    -39.21854357
     33.38000000	      0.24688677	     78.45318582	    -70.83714581	     14.68490187	    -39.01006513
     33.39000000	      0.24699786	     77.53149416	    -69.81624749	     14.59304287	    -38.82168573
     33.40000000	      0.24712200	     76.57085758	    -68.77536798	     14.48946676	    -38.64286083
     33.41000000	      0.24725888	     75.57007018	    -67.71840401	     14.37638323	    -38.47533648
     33.42000000	      0.24740612	     74.54315758	    -66.64792669	     14.25408542	    -38.30478536
     33.43000000	      0.24756169	     73.49404426	    -65.56702434	     14.12387019	    -38.12816414
     33.44000000	      0.24772308	     72.42933679	    -64.47796902	     13.98643697	    -37.93964933
     33.45000000	      0.24788799	     71.35072952	    -63.38241088	     13.84255390	    -37.73897071
     33.46000000	      0.24805282	     70.25887734	    -62.28143380	     13.69288858	    -37.52679775
     33.47000000	      0.24821872	     69.15223028	    -61.17596153	     13.53790999	    -37.30609126
     33.48000000	      0.24838449	     68.03185283	    -60.06658213	     13.37791967	    -37.07668558
     33.49000000	      0.24855379	     66.89889363	    -58.95346476	     13.21264746	    -36.83805734
     33.50000000	      0.24871867	     65.75391078	    -57.83697434	     13.04289326	    -36.59078780
     33.51000000	      0.24889094	     64.59686974	    -56.71816013	     12.86841142	    -36.33480891
     33.52000000	      0.24905987	     63.42502781	    -55.59631342	     12.69013190	    -36.07395890
     33.53000000	      0.24923025	     62.25005094	    -54.46951544	     12.50544468	    -35.79566197
     33.54000000	      0.24939377	     61.06220830	    -53.33895819	     12.31672834	    -35.51054213
     33.55000000	      0.24954986	     59.86516053	    -52.20274765	     12.12256991	    -35.21468033
     33.56000000	      0.24969794	     58.66076462	    -51.05947303	     11.92205190	    -34.90609394
     33.57000000	      0.24983764	     57.44781234	    -49.90744333	     11.71438951	    -34.58628698
     33.58000000	      0.24996976	     56.22389822	    -48.74499194	     11.49893235	    -34.25786310
     33.59000000	      0.25009529	     54.98641774	    -47.57117326	     11.27558945	    -33.92338909
     33.60000000	      0.25021276	     53.72985722	    -46.38618550	     11.04547182	    -33.58871749
     33.61000000	      0.25032756	     52.46205891	    -45.19114466	     10.80851943	    -33.24435351
     33.62000000	      0.25043996	     51.17765797	    -43.98686525	     10.56592018	    -32.89817740
     33.63000000	      0.25053832	     49.88254303	    -42.77821591	     10.32095121	    -32.54082676
     33.64000000	      0.25063870	     48.58272628	    -41.56396051	     10.07112975	    -32.17112299
     33.65000000	      0.25073768	     47.27808164	    -40.34693422	      9.81822621	    -31.79059836
     33.66000000	      0.25083774	     45.97898614	    -39.12939041	      9.56240806	    -31.38869245
